<?xml version="1.0" encoding="UTF-8"?>
<svg id="Layer_1" data-name="Layer 1" xmlns="http://www.w3.org/2000/svg" viewBox="0 0 254 203.01">
  <defs>
    <style>
      .cls-1 {
        fill: #7ab726;
      }
    </style>
  </defs>
  <path class="cls-1" d="m198.29,1.04c-.7,3.23-1.36,6.48-2.05,9.72-1.27,5.97-2.64,11.92-4.29,17.8-2.05,7.29-4.21,14.56-7.24,21.52-.36.83-2.93,7.68-3.65,9.17-1.93,4.01-4.1,7.9-6.31,11.76-3.43,6-7.2,11.78-11.29,17.35-5.79,7.88-7.38,12.68-22.46,23.91-2.98,1.67-5.93,3.33-8.91,5.01-16.19,6.45-29.31,7.5-39.55,6.11-.42-.1-.85-.15-1.3-.19h0c-15.2-2.44-23.76-10.24-26.37-12.99-.05-.07-.11-.13-.17-.19-.09-.1-.18-.19-.27-.29-.04-.04-.08-.08-.11-.13-.13-.15-.22-.26-.27-.31-.03-.04-.04-.05-.04-.05-.65-.74-1.27-1.52-1.86-2.34-3.25-4.43-5.16-9.44-5.97-14.88-.96-6.46-.69-12.79,1.8-18.9,3.23-7.96,8.98-13.65,16.33-17.84,1.51-.86,15.46-4.63,21.05-4.82,6.14-.21,12.15.6,18.16,1.77,2.99.58,5.8,1.89,8.83,2.2,3.88.41,7.28,2.14,10.75,3.65,3.83,1.66,7.53,3.59,11.19,5.6,4.4,2.4,8.6,5.1,12.77,7.87,1.92,1.28,1.93,1.3.04,2.56-1.68,1.13-3.39,2.22-5.08,3.34-.4.26-.69.32-1.14,0-3.63-2.69-7.48-5.02-11.43-7.21-4.56-2.53-9.27-4.78-14.08-6.8-4.3-1.81-8.69-3.37-13.16-4.71-5.66-1.69-11.4-2.86-17.3-3.34-4.29-.36-8.56-.13-12.71.8-8.42,1.89-15.39,6.06-19.83,13.73-1.76,3.04-2.64,6.38-2.82,9.91-.5,9.61,3.04,17.72,9.11,24.92,5.33,6.31,12.38,9.7,20.06,12.06,4.39,1.35,8.91,1.9,13.49,2.25,7.57.59,15.02-.12,22.26-2.39,3.57-1.13,6.98-2.64,10.28-4.46,5.69-3.15,10.71-7.17,15.29-11.71,4.04-4.02,7.67-8.44,10.9-13.17,6.6-9.64,11.77-20.02,16.38-30.73,2.25-5.23,4.04-10.59,5.75-15.99.81-2.53,2.04-12.05,2.45-14.19,1.19-6.26,2.46-12.52,3.67-18.78.34-1.75.31-1.71-1.47-1.47-2.72.38-16.26.29-19.74,2.66-4.77,3.23-6.74,9.18-5.21,14.9.92,3.4,2.95,6.08,5.22,8.66,2.12,2.42,4.63,4.49,6.65,7.01,1.44,1.78,2.73,3.66,3.03,6,.4,3.13-.27,6.09-1.99,8.7-1.3,1.96-2.67,3.9-4.39,5.55-1.72,1.64-3.68,2.87-6.04,3.06-2.87.24-5.05-1.19-6.64-3.54-1.08-1.59-1.17-3.46-1.48-5.27-.07-.41.18-.56.46-.29.82.75,1.89,1.13,2.66,1.96,1.6,1.71,3.62,2.72,5.93,2.81,4.32.18,6.9-3.32,6.03-6.96-.6-2.51-2.13-4.47-3.89-6.25-2.3-2.34-4.7-4.58-6.59-7.29-3.26-4.69-4.62-9.83-3.85-15.51.35-2.53.87-5.01,2-7.33,2.28-4.67,5.12-9.1,9.83-11.44,4.65-2.31,12.33-3.69,16.96-3.53,3.73-.14,7.37.32,11.02.18.69-.02.76.24.63.83Z"/>
  <g>
    <path class="cls-1" d="m163.05,167.25c.32-.57.69-1.09,1.14-1.56.48-.48.86-1.03,1.19-1.61,2.55-4.38,5.32-8.63,8.05-12.91,1.82-2.86,3.59-5.76,4.8-8.94.74-1.94,1.12-3.97.7-6.03-.5-2.47-1.73-4.6-3.44-6.44-.46-.49-1.04-.56-1.66-.44-.43.08-.83.25-1.23.45-1.71.88-3.29,1.96-4.76,3.2-3.89,3.27-7.48,6.85-10.89,10.62-6.26,6.9-20.31,24.33-21.38,25.9-1.29,1.88-2.68,3.69-4.03,5.53-.14.19-.24.51-.58.33-.37-.2-.16-.48-.04-.71.21-.46.46-.91.67-1.36,1.5-3.2,3.49-6.12,5.13-9.25,4.11-7.84,8.19-15.69,11.71-23.83,1.07-2.46,1.97-4.97,2.44-7.62.21-1.19.24-2.39-.25-3.54-.24-.57-.47-1.28-1.08-1.46-1.51-.46-3.03-.99-4.65-.98-1.6.02-3.17.24-4.67.84-1.46.58-3.07.55-4.5,1.3-4.17,2.18-8.29,4.44-12.35,6.82-.62.36-1.25.69-1.92.95-.13.05-.28.11-.38-.01-.12-.13,0-.26.07-.37.43-.8.98-1.51,1.63-2.13.85-.81,1.71-1.61,2.58-2.41.22-.2.44-.42.27-.7-.18-.31-.52-.25-.8-.1-.24.12-.47.29-.69.46-1.03.78-2.04,1.58-3.08,2.35-3.47,2.58-6.39,5.69-8.92,9.2-1.01,1.41-1.82,2.94-2.67,4.45-.26.45-.49.48-.82.09-.25-.3-.52-.59-.79-.86-2.56-2.66-5.61-3.47-9.14-2.41-.72.21-1.46.5-2.23-.03.77-.44,1.64-.67,2.33-1.21.71-.56,1.52-.87,2.38-1.06,1.75-.4,3.52-.7,5.31-.9.87-.09.98-.23.65-1.04-.75-1.8-1.69-3.5-2.85-5.05-1.67-2.25-3.98-3.17-6.74-2.73-1.88.3-3.62,1.07-5.3,1.95-5.21,2.72-9.79,6.3-14,10.39-3.67,3.56-7.03,7.37-9.83,11.66-2.31,3.54-4.39,7.21-5.78,11.22-.75,2.16-1.59,4.29-1.95,6.56-.45,2.83-.45,5.68-.1,8.54.46,3.78,1.42,7.37,3.52,10.59,3.55,5.44,8.66,7.34,14.72,6.21,3.67-.69,7-2.31,10.14-4.27,4.48-2.79,8.18-6.42,11.36-10.61.42-.56,4.76-9.91,5.94-12.7,1.01-2.38,2.07-4.73,2.69-7.25.71-2.85,1.34-5.71,1.38-8.65.01-.84.43-1.33,1.09-1.69,1.15-.63,2.26-1.34,3.35-2.07,2.89-1.9,5.74-3.88,8.78-5.53,4.76-2.58,9.59-5.03,14.64-7.02,1.72-.67,3.18.2,3.22,2.03.02.91-.24,1.78-.53,2.63-2.35,6.92-5.79,13.35-9,19.89-.97,1.97-2.2,3.78-3.25,5.69-2.44,4.47-4.69,9.04-7.33,13.41-.84,1.4-1.55,2.88-2.19,4.4-.3.71-.26,1.33.18,1.95.88,1.25,1.98,2.24,3.27,3.04,1.43.88,2.17.76,3.34-.46,1.07-1.11,1.78-2.46,2.64-3.72,3.85-5.63,7.7-11.27,11.56-16.89.96-1.4,12.46-15.6,16.65-20.09,1.76-1.88,3.56-3.74,5.67-5.26.88-.64,1.8-1.21,2.84-1.55.85-.28,1.51.18,1.58,1.05.04.54-.03,1.06-.27,1.55-.35.75-.68,1.51-1.06,2.26-1.99,3.94-4.55,7.54-6.68,11.39-1.45,2.62-3.18,5.09-4.58,7.73-2.43,4.61-4.62,9.34-6.21,14.32-.67,2.08-1.29,4.18-1.63,6.35-.3,1.94-.55,3.88,0,5.82.98,3.51,3.98,5.13,7.45,4.05,2.72-.84,4.9-2.55,7.02-4.32,4.53-3.77,8.49-8.12,12.45-12.47,2.19-2.41,1.98-1.99,1.75-5.09,0-.07,0-.14-.02-.2-.02-.18.03-.41-.17-.49-.22-.09-.32.15-.43.26-1.35,1.33-2.67,2.68-4.02,3.99-2.09,2.03-4.2,4.02-6.71,5.53-1.36.82-2.82,1.26-4.42,1.06-1.4-.17-2.35-1.2-2.49-2.62-.18-1.99.17-3.9.75-5.79,1.25-4.11,3.38-7.82,5.43-11.56Zm-59.26-11.6c-.2,3.84-1.13,7.51-2.77,10.99-.28.61-.47,1.25-.45,1.93.01.89-.39,1.65-.81,2.39-1.87,3.27-3.91,6.42-6.22,9.4-3.17,4.09-6.79,7.72-10.94,10.8-1.78,1.32-3.71,2.43-5.92,2.9-1.45.32-2.91.41-4.38-.03-2.41-.72-3.64-2.42-4.14-4.8-.59-2.9,0-5.69.73-8.46.75-2.83,1.65-5.63,2.93-8.27,1.12-2.32,2.37-4.58,3.57-6.87,1.31-2.5,2.92-4.81,4.52-7.11.15-.22.32-.44.64-.52-1.54,3.52-2.96,7.06-3.61,10.93.41-.07.42-.38.54-.6,3.52-6.49,7.64-12.47,13.97-16.58,2.29-1.49,4.68-2.79,7.4-3.33,1.6-.32,3.26.2,4.12,2,.8,1.67.9,3.43.81,5.2Z"/>
    <path class="cls-1" d="m61.64,137.72c-2.86-3.13-6.61-4.32-10.72-4.57-2.52-.15-5.02.2-7.53.31-4.1,0-8.14.54-12.11,1.55-6.27,1.6-12.51,3.32-18.56,5.66-1.31.51-2.6,1.07-3.66,2.05-3.94,3.64-6.65,8.1-8.67,13.01-.28.68-.45,1.41-.37,2.16.08.86.52,1.34,1.36,1.5.94.18,1.85-.03,2.73-.27,4.01-1.09,7.91-2.49,11.76-4.05.98-.39,1.92-.89,2.86-1.39.85-.47.84-.81,0-1.27-.57-.31-1.15-.59-1.72-.89-.14-.07-.36-.07-.36-.27,0-.18.21-.22.34-.31.52-.34,1.04-.68,1.61-.93,4.48-1.98,9.15-3.39,13.92-4.5,3.28-.77,6.58-1.38,9.93-1.74,1.96-.21,3.91-.11,5.86-.07,1.74.03,3.46.27,5.09.86,1.8.66,3.17,1.77,3.61,3.77.48,2.24-.35,4.02-1.91,5.55-1.85,1.8-4.12,2.94-6.47,3.91-4.17,1.71-8.55,2.74-12.91,3.8-1.54.37-3.11.65-4.66.97-.15.03-.35.09-.45-.06-.13-.18.07-.29.16-.41,1.23-1.58,2.46-3.17,3.69-4.75,1.72-2.19,3.53-4.32,5.14-6.6.27-.38.8-.83.5-1.25-.3-.43-.95-.16-1.43-.07-3.28.64-6.19,2.08-8.69,4.3-3.33,2.96-6.15,6.36-8.74,9.95-.44.61-.95.95-1.67,1.08-2.66.47-5.31.92-7.95,1.45-1.46.29-2.96.45-4.31,1.19-1.03.56-1.41,1.42-1.3,2.53.09.94.52,1.71,1.26,2.3.69.55,1.5.78,2.34.95,1.13.23,2.28.29,3.43.38.2.02.47.01.54.23.08.25-.2.34-.36.44-.71.4-1.14,1.06-1.55,1.73-1.32,2.13-2.66,4.26-3.96,6.41-1.54,2.55-2.76,5.23-3.34,8.15-1.02,5.13,1.43,9.04,6.08,11.01,3.19,1.35,6.58,1.54,9.98,1.47,2.59-.06,5.11-.67,7.61-1.32,5.27-1.35,10.18-3.54,14.79-6.4,3.35-2.08,6.43-4.51,8.62-7.87,2.03-3.11,2.51-6.94-.17-10.08-2.09-2.46-4.79-4.08-8.07-4.53-.96-.13-1.93-.18-2.87-.42-4.94-1.22-9.96-1.81-15.04-2-.46-.01-.56-.15-.29-.53.51-.71,1.03-1.42,1.55-2.12.23-.31.57-.47.93-.55.61-.15,1.21-.28,1.82-.4,5.58-1.13,11.12-2.42,16.45-4.47,4.12-1.58,8.12-3.39,11.61-6.18,2.65-2.12,4.97-4.47,6.22-7.7,1.55-3.96.93-7.58-1.93-10.72Zm-29.5,36.78c2.97.39,5.9,1,8.74,1.98.83.29,1.63.68,2.26,1.29,1.48,1.44,1.85,2.93.55,5.12-1.02,1.74-2.63,2.95-4.31,4.02-2.53,1.62-5.23,2.94-8.14,3.71-2.19.59-4.39,1.22-6.42,1.3-1.77.09-3.26.05-4.75-.17-1.52-.23-2.87-.86-4.03-1.85-1.85-1.58-2.32-3.71-1.37-6.07.69-1.71,1.85-3.13,2.93-4.59,1.11-1.52,2.28-3.01,3.4-4.53.35-.49.76-.73,1.37-.76,3.28-.17,6.53.11,9.78.54Z"/>
    <path class="cls-1" d="m204.76,183.71c4.82-.24,8.97-.69,13.11-1.21,4.66-.58,9.19-1.71,13.43-3.8,2.14-1.05,4.08-2.42,5.93-3.91.82-.66.79-.97.11-1.76-2.99-3.46-6.95-5.13-11.27-6.16-2.83-.68-11.43-1.3-24.77-6.36-1.73-1.49-2.07-3.47-1.95-5.59.16-2.76.59-5.47,1.39-8.15,1.27-4.26,3.78-7.48,7.5-9.82,4.01-2.52,8.32-4.32,12.84-5.7,4.54-1.39,9.19-2.12,13.88-2.68,4.48-.53,8.96-.57,13.45-.06,1.52.17,2.98.59,4.29,1.45.77.51,1.2,1.16,1.25,2.1.1,2.08.1,4.15-.8,6.1-.74,1.59-1.84,2.79-3.46,3.51-1.71.76-3.4,1.55-5.08,2.37-2.43,1.17-4.77,2.52-6.9,4.19-.51.4-1.01.82-1.64,1.01-.19.06-.41.15-.59-.03-.19-.19-.15-.43-.06-.65.27-.67.65-1.28,1.12-1.81,1.24-1.41,2.66-2.62,4.28-3.58.87-.52,1.77-1.01,2.53-1.68.51-.46.44-.73-.21-.95-.45-.15-.91-.11-1.37-.09-7.33.3-14.54,1.4-21.53,3.66-3.19,1.03-6.28,2.3-9.05,4.23-1.31.91-2.54,1.92-3.38,3.32-.58.96-.72,1.99-.51,3.07.17.88.91,1.25,1.64,1.53,1.1.42,2.24.72,3.39.95,4.81.96,9.61,2.02,14.31,3.45,1.26.38,8.16,2.69,10.23,3.77,2.05,1.07,3.94,2.41,5.43,4.22,2.23,2.7,2.81,5.79,2.02,9.16-.91,3.92-3.19,6.92-6.22,9.47-3.28,2.76-7.16,4.22-11.15,5.48-4.56,1.44-9.22,2.39-13.95,3.06-2.63.37-5.27.55-7.92.7-3.77.22-7.52,0-11.21-.77-1.86-.38-3.72-.9-5.16-2.33-1.14-1.14-1.61-2.42-1.12-4.02.61-1.97,1.39-3.87,2.62-5.54,1.86-2.54,4.5-3.55,7.53-3.74.29-.02.67-.03.79.29.14.39-.23.56-.49.74-.75.5-1.51.97-2.26,1.47-.18.12-.43.24-.38.52.04.27.3.33.52.4.98.34,2,.33,3.01.34,2.17.02,4.33-.03,5.84-.17Z"/>
    <path class="cls-1" d="m197.3,126.01c.1,1.41-.12,2.49-.51,3.53-1.47,3.88-3.98,7.03-6.98,9.83-.22.2-.48.36-.73.52-.19.12-.39.31-.62.12-.21-.17-.14-.42-.09-.65.19-.86.79-1.5,1.16-2.26.09-.19.21-.36.31-.54.62-1.06.61-1.08-.55-1.34-1.19-.27-1.77-1.16-1.62-2.48.25-2.26,1.32-4.14,2.67-5.9.07-.09,2.79-2.21,4.28-2.78,1.38-.52,2.6.57,2.67,1.95Z"/>
  </g>
</svg>