<svg version="1.1" id="Layer_1" xmlns="http://www.w3.org/2000/svg" x="0" y="0" viewBox="0 0 1375 941.7" style="enable-background:new 0 0 1375 941.7" xml:space="preserve">
    <style>
        .st2{fill:#7ab726}.st5{fill:#fcfcfc;stroke:#fff;stroke-width:2.2536;stroke-miterlimit:10}
    </style>
    <switch>
        <g>
            <linearGradient id="SVGID_1_" gradientUnits="userSpaceOnUse" x1="225.101" y1="536.989" x2="225.101" y2="84.228">
                <stop offset=".194" style="stop-color:#dbf0e9;stop-opacity:0"/>
                <stop offset=".215" style="stop-color:#c5e7d9;stop-opacity:6.787193e-02"/>
                <stop offset=".265" style="stop-color:#97d3b6;stop-opacity:.2291"/>
                <stop offset=".316" style="stop-color:#70c399;stop-opacity:.3906"/>
                <stop offset=".366" style="stop-color:#52b682;stop-opacity:.5499"/>
                <stop offset=".415" style="stop-color:#3dad72;stop-opacity:.706"/>
                <stop offset=".462" style="stop-color:#30a868;stop-opacity:.8577"/>
                <stop offset=".507" style="stop-color:#2ca665"/>
                <stop offset=".834" style="stop-color:#159c53"/>
                <stop offset="1" style="stop-color:#079649"/>
            </linearGradient>
            <path d="M94.8 288.9c6.6-4.4 12.1-8 17.5-11.6.4.5.8.9 1.1 1.4-1.9 2.7-3.9 5.3-5.8 8 .4.8.8 1.5 1.2 2.3 14.9-5.3 29.9-10.5 44.8-15.8l1.8 2.4c-3.4 4.1-6.5 8.7-10.4 12.3-25.4 22.5-37.1 50.7-36.4 84.1.9.3 1.7.6 2.6 1 2.5-7.7 5-15.4 8-24.8 1.8 5.3 2.8 8.3 4.2 12.4 3.2-7.8 5.8-14 8.4-20.2.7.2 1.5.4 2.2.7-.4 3.6-.9 7.1-1.3 10.7l2.2 1.1c10.4-14.4 20.8-28.8 31.2-43.1.9.2 1.7.5 2.6.7-.3 5.3-.4 10.7-1 16-.8 7-2.6 13.9-3 21-1.3 24 8.2 52.6 22.9 65.9-2.8-9.7-5-17.2-7.9-27l10.5 8.4c-1.5-8.2-2.7-14.6-3.9-21.1.7-.2 1.5-.3 2.2-.5 1.5 2.7 3 5.5 4.6 8.2.8-.2 1.6-.3 2.4-.5.9-17.1 1.8-34.2 2.8-51.9 7.5 18 12.8 35.6 21.8 51.2 11.8 20.6 31.3 34.4 41.8 33.2-5.5-5.5-10.7-10.8-17.7-17.8 6.3 1.2 9.6 1.9 15.4 3-6.2-5.5-10.5-9.3-14.7-13.1l.9-1.5c2.6.6 5.1 1.1 7.7 1.7.3-.6.5-1.1.8-1.7-6.7-6.5-13.4-13-21.1-20.5 3.9.9 6.1 1.3 9.7 2.1-4.5-3.7-7.9-6.5-12.8-10.6 4.8.6 7.4 1 11.2 1.5-3.3-4.2-5.5-7.2-8.7-11.3 3.7.3 5.9.5 9.6.8-3.9-7.3-7.3-13.6-10.4-19.5 1.4.5 3.9 1.3 8.4 2.8-4.2-6.1-7.1-10.4-10.1-14.8.9-.7 1.8-1.4 2.7-2 2.6 2.9 6.3 5.4 7.5 8.8 13.1 37.1 26.7 74 38.2 111.5 1.9 6 6.1 31 7.9 37.1h16.1c-15-47.5-35.2-113-55.8-158.7-1.1-2.5-.8-5.6-1.2-8.4 2.7 1.1 5.5 1.8 7.9 3.3 2.2 1.4 3.9 3.5 6.6 6.2.6-3.7 1-6 1.4-8.4 4.2 2.8 8.5 5.1 12.1 8.1 9.9 8.5 19.5 17.3 29.1 26.1l2.1-2.1c-1.3-3.5-2.6-7-4-10.5.6-.4 1.1-.7 1.7-1.1 4.5 5.7 8.9 11.4 14.4 18.4 0-5.1-.1-8.4-.1-14.5 5.6 9.1 9.6 15.5 13.5 22 1.9-3.2 1.8-5.2 1.3-7.1-10.9-35.3-33.6-59.2-68.8-71-3.8-1.3-7.2-3.4-10.8-5.1.3-.4.7-.8 1-1.2 11.2 1.7 22.4 3.4 33.7 5.1-.2-8.4 6.3-7.9 10.2-7.3 8.8 1.4 17.3 4.8 26.1 6.7 4.6 1 9.5.7 17 1.2-4.8-4.3-7.2-6.3-9.5-8.4l1.2-1.8c6.8 3.2 13.5 6.3 21.6 10.1-2.6-4.6-4.6-8.1-7.6-13.6 9.1 5.1 16.1 9 23.1 12.9.4-1.1.8-2.2 1.1-3.4-23.4-23.8-51.3-36.3-85.4-34.1-6.7.4-13.6-1.2-20.4-1.9.2-.4.4-.9.6-1.3 6.8-1.6 13.5-3.3 21.4-5.2-3.5-2.8-5.5-4.4-8.8-7.1 6.6.1 11.4.1 17 .2-2.9-2.4-5.1-4.1-9.9-8 14.9-.6 26.4-1.1 38.6-1.6-2.7-2-5-3.6-10-7.2 9 1.2 14.8 2 23 3.1-4.9-3.7-7.8-5.9-12.4-9.4 9.7.5 17.2.8 24.8 1.2-1.5-3.4-3.2-4.5-5.1-5.1-32.3-9.6-63-6.9-91.5 11.9-5.9 3.9-10.9 11.4-18.2 5.6 3-6.1 5.8-12 8.9-18.3-3 .1-5.5.3-9.3.4 4.1-4.6 7.2-8 11.7-13-5.9 2-9.7 3.3-15.8 5.4 5.1-4.3 8.2-6.9 11.8-10-2.2-.3-3.9-.5-6-.8 7.6-6.8 14.7-13.2 23.8-21.4-5.7.9-8.6 1.4-13.5 2.2 5.7-5.2 9.9-9 16.5-15-6.4 1.6-9.6 2.3-12.8 3.1-.3-.5-.7-1.1-1-1.6 5.7-5.3 11.4-10.7 17.1-16-4.1-1-7.2-.2-9.9 1.4-29.9 17.9-47.4 43.9-51.9 78.5-.6 4.6-2 9.2-3.5 15.6-2.5-7.2-4.2-12.2-6-17.5-2.1 2-3.2 3.1-5.4 5.2.4-5.2.6-9 .9-13.3-2 1.2-3.5 2.2-6.9 4.3.1-11.2.1-20.6.2-31-2 2.6-3.6 4.5-6.5 8.2 1.2-7.4 1.9-12.3 3-18.9-3.3 3.4-5 5.2-8.2 8.4 1-8.3 1.7-14.5 2.5-20.7-1.1 0-2.2.1-3.3.1-15.3 36.9-10.7 71.2 16.5 102.9-53.2-7.4-92.9 8.7-106.7 44.5 5.6-4.7 11.3-9.3 18.4-15.2-1.2 5.7-2.1 8.8-3.3 12.9z" style="fill:url(#SVGID_1_)"/>
            <linearGradient id="SVGID_00000156551318076328889300000004185691649892023192_" gradientUnits="userSpaceOnUse" x1="427.54" y1="478.089" x2="427.54" y2="61.627">
                <stop offset=".135" style="stop-color:#dbf0e9;stop-opacity:0"/>
                <stop offset=".225" style="stop-color:#a5d9c0;stop-opacity:.2333"/>
                <stop offset=".323" style="stop-color:#71c399;stop-opacity:.4881"/>
                <stop offset=".409" style="stop-color:#4cb37d;stop-opacity:.7103"/>
                <stop offset=".478" style="stop-color:#34aa6b;stop-opacity:.8883"/>
                <stop offset=".521" style="stop-color:#2ca665"/>
                <stop offset=".764" style="stop-color:#159c53"/>
                <stop offset=".888" style="stop-color:#079649"/>
            </linearGradient>
            <path style="fill:url(#SVGID_00000156551318076328889300000004185691649892023192_)" d="M525.1 185.6c-5.7-3-10.6-7.7-15.9-11.6.5-1.1 1-2.3 1.5-3.4 19.3 2 38.5 3.9 57.8 5.9.2-1 .5-2 .7-3-3.1-2.6-6.1-5.2-9.2-7.8.3-.7.6-1.3 1-2 7.5 2.7 15 5.4 24.1 8.7-2.6-4.6-4.6-8-8.1-14.2 10.2 5 18.2 8.9 26.3 12.8-26.7-38.6-78.5-46.2-139.6-22.1 23.1-45.5 18.6-87.6-10.2-127-1.3.3-2.6.5-3.9.8 2.7 7.2 5.4 14.3 8.9 23.9-4.7-3-7.3-4.6-12.2-7.7 3.2 7.6 5.5 13.2 9 21.6-4.6-3.5-6.9-5.4-10.1-7.8 3.1 12.3 5.9 23.6 9.2 36.8-4.7-1.5-6.8-2.2-9.5-3.1 1.6 5.1 3 9.4 4.9 15.5-3.2-1.8-4.9-2.8-7.9-4.6-.6 6.8-1.2 13.2-2.1 22.5-3.6-7.2-6.6-12.2-8.6-17.5-15.4-39.9-43.7-65.7-84.4-78.3-3.6-1.1-7.5-1.2-12.2 1.2l24.9 14.1c-.3.7-.5 1.5-.8 2.2h-16.1c9.6 5.2 15.7 8.6 23.9 13.1-6.1.5-9.6.8-16.6 1.3 13.2 7.1 23.4 12.6 34.4 18.5-2.4.9-4.3 1.7-6.9 2.7 5.2 2.6 9.7 4.8 16.9 8.4-7.9-.7-12.7-1.1-20.3-1.8 6.9 4.7 11.5 7.9 17.7 12.1-4.6.9-7.5 1.5-11.1 2.2 5.5 6.6 10.5 12.7 15.8 19.1-6.9 9-15.1 1.5-23.2-1.4-39.4-14.1-76.6-8.5-112.2 12.2-2.1 1.2-3.8 3.1-4.6 7.5 8.9-2.6 17.7-5.2 29.1-8.6-4.5 5.5-7.3 8.9-12 14.7 9.4-3.7 16.1-6.2 26.4-10.3-4.9 5.7-7.1 8.3-9.8 11.5 14.6-2.9 28.4-5.7 46.3-9.3-4.5 5.9-6.6 8.6-9.4 12.3 6.7-1.7 12.3-3.1 20.2-5.2-3.2 4.2-5 6.6-8.4 11H366c.4.5.7.9 1.1 1.4-7.9 2.8-15.6 6.7-23.7 8.2-41.2 7.2-70.7 30.2-91.7 65.2l2.3 3.7c7.2-6.7 14.4-13.4 23.8-22-2.1 7.4-3.4 12.1-5.2 18.3 8.5-6.8 15.6-12.5 22.8-18.2.7.6 1.3 1.2 2 1.8-2.2 3.2-4.4 6.3-8.9 12.8 8.8-2.7 14.7-3.8 19.9-6.4 9.9-4.8 19-11.3 29.1-15.5 4.5-1.9 12.1-4.3 14.3 5.7 12.9-5.3 25.7-10.5 38.6-15.7.5.4 1 .7 1.6 1.1-3.8 3.1-7.3 6.6-11.4 9.2-38.4 24.2-58.5 59.1-61.2 104.2-.1 2.4.3 4.9 3.6 8.1 2.9-8.8 5.7-17.7 9.7-30.1 1.7 7.3 2.6 11.2 4.1 17.3 4.5-9.8 8.1-17.9 11.8-26 .8.3 1.5.5 2.3.8-.6 4.5-1.1 9.1-1.7 13.6l3.1 1.8c9-13.1 17.8-26.4 27.1-39.4 3.4-4.7 7.8-8.6 12-13.2 1.2 2.8 2.3 5.3 4.1 9.6 2.5-4 3.9-7.1 6.1-9.3 2.4-2.5 5.6-4.2 8.5-6.2.4 3.4 1.7 7.1 1.1 10.3-12.9 69-21 138.4-24.5 208.2h19.7c.4-18.2 1.2-36.4 2.3-54.5 2.8-47.9 8.4-95.7 13.2-143.6.4-4.4 4.2-8.5 6.4-12.7l3.8 1.6c-2.3 6-4.6 12.1-7.7 20.5 4.9-3.1 7.7-4.8 9.2-5.8-2 7.8-4.2 16.3-6.8 26.1 4.4-1.5 6.9-2.3 11.2-3.8-2.6 5.8-4.4 9.9-7.1 15.9 4.3-1.7 7.3-2.9 12.8-5-4.7 6.3-7.9 10.6-12.2 16.3 4.1-2 6.6-3.2 10.9-5.4-7 11.2-13.1 20.9-19.2 30.5.5.6 1 1.2 1.4 1.8l8.7-4.2c.5.5 1 1 1.6 1.5-4 5.7-7.9 11.5-13.7 19.8 6.6-3.1 10.4-4.8 17.5-8-6.3 10.4-11 18.2-15.9 26.3 12.9-1.6 32-23.6 40.1-51.5 6.1-21.1 7.4-43.7 11.1-67.2 6.2 20.7 12.2 40.8 18.3 60.9l3-.1 3-11.1h2.8c.5 8 .9 16.1 1.5 26.2 3.4-4.3 5.7-7.4 10.1-13-.6 12.5-1 22-1.6 34.4 13.6-20 16.6-56.7 8.1-84.9-2.5-8.2-6.6-16-9.6-24.1-2.3-6.1-3.9-12.5-5.8-18.7.9-.5 1.9-1.1 2.8-1.6 16.5 14.1 33 28.2 49.5 42.2.8-.6 1.5-1.3 2.3-1.9-1.6-4.1-3.1-8.2-4.7-12.4.8-.5 1.6-.9 2.4-1.4 4.9 6.7 9.7 13.3 15.8 21.6.5-5.4.8-9.2 1.4-16 6.3 10.3 11.5 18.8 16.7 27.2.9-.6 1.9-1.3 2.8-1.9-9-39.6-31-69.7-67.7-89.2z"/>
            <path class="st2" d="M588 837.7c.6-.9 1.2-1.7 2-2.4s1.5-1.6 2.1-2.5c4.5-6.9 9.4-13.5 14.2-20.1 3.2-4.4 6.4-9 8.6-14 1.4-3.1 2.2-6.3 1.7-9.7-.6-4-2.4-7.6-5-10.7-.7-.8-1.6-1-2.6-.9-.7.1-1.4.3-2 .6-2.9 1.3-5.5 2.9-8 4.7-6.6 4.9-12.7 10.4-18.6 16.2-10.8 10.6-35.1 37.5-37 39.9-2.3 2.9-4.7 5.7-7 8.6-.2.3-.4.8-1 .5-.6-.4-.2-.8 0-1.2l1.2-2.1c2.7-5 6.2-9.6 9.2-14.5 7.4-12.3 14.7-24.6 21.2-37.4 2-3.9 3.7-7.9 4.7-12.1.4-1.9.6-3.8-.1-5.7-.3-.9-.6-2.1-1.6-2.5-2.4-.9-4.8-1.9-7.4-2-2.6-.1-5.2.1-7.6.9-2.4.8-5 .6-7.4 1.7-7 3.1-13.8 6.4-20.6 9.9-1 .5-2.1 1-3.2 1.4-.2.1-.5.2-.6-.1-.2-.2 0-.4.2-.6.8-1.3 1.7-2.3 2.8-3.3 1.5-1.2 2.9-2.4 4.4-3.7.4-.3.8-.6.5-1.1-.3-.5-.8-.4-1.3-.2-.4.2-.8.4-1.2.7-1.7 1.2-3.5 2.4-5.2 3.5-5.8 3.9-10.9 8.6-15.3 14-1.8 2.2-3.2 4.6-4.7 6.9-.5.7-.8.7-1.3.1l-1.2-1.5c-3.9-4.5-8.7-6.1-14.6-4.8-1.2.3-2.4.7-3.6-.3 1.3-.6 2.7-.9 3.9-1.7 1.2-.8 2.5-1.3 3.9-1.5 2.9-.5 5.8-.8 8.7-1 1.4-.1 1.6-.3 1.1-1.6-1-3-2.4-5.8-4.1-8.4-2.5-3.8-6.1-5.5-10.7-5-3.1.3-6 1.4-8.8 2.7-8.7 3.9-16.4 9.3-23.6 15.5-6.3 5.4-12.1 11.3-17 17.9-4.1 5.5-7.8 11.3-10.4 17.6-1.4 3.4-3 6.8-3.8 10.4-1 4.5-1.3 9.1-1 13.8.4 6.2 1.6 12.1 4.7 17.5 5.2 9.1 13.3 12.7 23.2 11.4 6-.8 11.5-3.1 16.8-6 7.5-4.1 13.8-9.6 19.4-16.1.7-.9 8.6-15.6 10.8-20 1.9-3.7 3.8-7.5 5-11.5 1.4-4.5 2.7-9.1 3-13.9.1-1.4.8-2.1 1.9-2.6 1.9-.9 3.8-2 5.6-3 4.9-2.8 9.7-5.7 14.7-8.1 7.9-3.7 16-7.2 24.3-10 2.8-.9 5.1.6 5 3.6-.1 1.5-.6 2.9-1.1 4.2-4.5 11-10.6 21.1-16.4 31.3-1.7 3.1-3.9 5.9-5.8 8.9-4.4 7-8.4 14.2-13.1 21-1.5 2.2-2.8 4.5-3.9 6.9-.5 1.1-.5 2.1.1 3.2 1.3 2.1 3 3.8 5 5.2 2.2 1.6 3.4 1.4 5.4-.4 1.8-1.7 3.1-3.8 4.6-5.8 6.8-8.8 13.5-17.5 20.3-26.2 1.7-2.2 21.6-24.1 28.8-30.9 3-2.9 6.1-5.7 9.7-8 1.5-1 3-1.8 4.7-2.2 1.4-.4 2.4.4 2.5 1.8 0 .9-.2 1.7-.6 2.5-.6 1.2-1.2 2.4-1.9 3.6-3.6 6.2-8.1 11.8-11.9 17.8-2.6 4.1-5.6 7.9-8.1 12.1-4.4 7.2-8.3 14.7-11.4 22.6-1.3 3.3-2.5 6.6-3.2 10.1-.7 3.1-1.2 6.2-.5 9.4 1.3 5.8 6 8.7 11.7 7.3 4.5-1.1 8.2-3.7 11.8-6.3 7.7-5.7 14.5-12.3 21.3-19 3.8-3.7 3.4-3 3.3-8.1v-.3c0-.3.1-.7-.2-.8-.3-.2-.5.2-.7.4-2.3 2-4.6 4.1-6.9 6.1-3.6 3.1-7.2 6.1-11.4 8.3-2.3 1.2-4.7 1.8-7.2 1.3-2.3-.4-3.7-2.2-3.8-4.5-.1-3.2.6-6.3 1.7-9.3 2.4-6.7 6.2-12.5 9.9-18.4zm-94.8-24.3c-.7 6.2-2.5 12-5.5 17.5-.5 1-.9 2-.9 3.1-.1 1.4-.8 2.6-1.5 3.8-3.3 5.1-6.9 10-10.9 14.6-5.5 6.3-11.7 11.8-18.7 16.4-3 2-6.2 3.6-9.8 4.1-2.4.4-4.7.4-7.1-.5-3.8-1.4-5.7-4.3-6.2-8.2-.7-4.7.5-9.2 2-13.6 1.5-4.5 3.2-9 5.5-13.1 2-3.7 4.3-7.2 6.4-10.8 2.4-3.9 5.2-7.5 8-11.1.3-.3.6-.7 1.1-.8-2.8 5.5-5.5 11.1-6.9 17.3.7-.1.7-.6.9-.9 6.3-10.2 13.5-19.5 24.2-25.5 3.8-2.2 7.8-4.1 12.3-4.7 2.6-.4 5.3.6 6.5 3.6.9 3.1.9 5.9.6 8.8zM426.7 780.4c-4.3-5.3-10.3-7.6-16.9-8.4-4.1-.5-8.1-.2-12.2-.2-6.6-.4-13.2.1-19.7 1.4-10.3 2-20.5 4.2-30.6 7.4-2.2.7-4.3 1.5-6.1 3-6.7 5.5-11.5 12.5-15.2 20.2-.5 1.1-.9 2.2-.8 3.5.1 1.4.7 2.2 2.1 2.6 1.5.4 3 .1 4.4-.2 6.6-1.4 13-3.3 19.4-5.4 1.6-.5 3.2-1.3 4.8-2 1.4-.7 1.4-1.2.1-2.1-.9-.6-1.8-1.1-2.7-1.6-.2-.1-.6-.1-.6-.5 0-.3.4-.3.6-.5.9-.5 1.7-1 2.7-1.4 7.4-2.8 15.1-4.6 22.9-6 5.4-.9 10.8-1.6 16.2-1.9 3.2-.2 6.3.2 9.5.4 2.8.2 5.6.8 8.2 1.9 2.9 1.2 5 3.2 5.5 6.4.6 3.7-1 6.5-3.6 8.8-3.2 2.7-6.9 4.4-10.8 5.7-6.9 2.4-14.1 3.6-21.2 4.9-2.5.5-5.1.8-7.6 1.1-.2 0-.6.1-.7-.1-.2-.3.1-.5.3-.6 2.1-2.4 4.3-4.9 6.4-7.3 3-3.4 6.1-6.7 8.9-10.2.5-.6 1.4-1.3.9-2-.4-.7-1.5-.3-2.3-.2-5.4.7-10.2 2.8-14.5 6.1-5.7 4.5-10.5 9.7-15.1 15.3-.8 1-1.6 1.5-2.8 1.6-4.3.5-8.7 1-13 1.6-2.4.3-4.8.5-7.1 1.5-1.7.8-2.4 2.2-2.3 4 .1 1.5.7 2.8 1.8 3.8s2.4 1.4 3.7 1.8c1.8.5 3.7.7 5.5.9.3 0 .8.1.9.4.1.4-.3.5-.6.7-1.2.6-1.9 1.6-2.7 2.7-2.3 3.3-4.7 6.6-7 10-2.7 4-5 8.2-6.2 12.9-2.1 8.2 1.5 14.8 8.8 18.4 5 2.5 10.5 3.1 16 3.3 4.2.2 8.3-.6 12.4-1.4 8.6-1.7 16.8-4.8 24.5-9 5.6-3.1 10.8-6.7 14.7-11.9 3.6-4.8 4.7-11 .7-16.3-3.2-4.2-7.4-7-12.6-8.1-1.5-.3-3.1-.5-4.6-1-7.9-2.4-15.9-3.9-24.1-4.6-.7-.1-.9-.3-.4-.9l2.7-3.3c.4-.5 1-.7 1.6-.8 1-.2 2-.3 3-.5 9.1-1.3 18.2-2.9 27-5.7 6.8-2.2 13.5-4.7 19.4-8.9 4.5-3.2 8.5-6.8 10.8-11.9 2.6-6.1 1.9-12-2.4-17.4zm-51.2 56.8c4.8.9 9.4 2.2 14 4 1.3.5 2.6 1.2 3.5 2.3 2.3 2.5 2.7 4.9.4 8.3-1.8 2.7-4.5 4.5-7.4 6.1-4.3 2.4-8.7 4.3-13.5 5.2-3.6.7-7.2 1.6-10.5 1.5-2.9 0-5.3-.2-7.7-.7-2.4-.5-4.6-1.7-6.4-3.4-2.9-2.7-3.4-6.2-1.7-9.9 1.3-2.7 3.3-4.9 5.2-7.2 1.9-2.4 4-4.7 5.9-7 .6-.8 1.3-1.1 2.3-1.1 5.5.1 10.7.9 15.9 1.9zM691.4 868.2c7.8.1 14.6-.3 21.3-.7 7.6-.5 15-1.9 22.1-4.9 3.6-1.5 6.8-3.5 10-5.8 1.4-1 1.4-1.5.3-2.8-4.5-5.9-10.8-8.9-17.7-11-4.5-1.4-18.4-3.2-39.5-12.6-2.7-2.6-3-5.8-2.6-9.2.5-4.5 1.5-8.8 3-13 2.5-6.8 6.8-11.7 13.1-15.2 6.7-3.7 13.9-6.2 21.3-8 7.5-1.8 15.1-2.6 22.7-3 7.3-.4 14.6-.1 21.8 1.2 2.4.4 4.8 1.2 6.8 2.7 1.2.9 1.8 2 1.8 3.5 0 3.4-.2 6.7-1.9 9.8-1.3 2.5-3.2 4.3-5.9 5.4-2.8 1.1-5.6 2.2-8.4 3.4-4 1.7-7.9 3.6-11.6 6.1-.9.6-1.7 1.2-2.7 1.5-.3.1-.7.2-.9-.1-.3-.3-.2-.7 0-1.1.5-1.1 1.2-2 2-2.8 2.1-2.2 4.5-4 7.3-5.4 1.5-.8 2.9-1.5 4.2-2.5.9-.7.8-1.1-.3-1.6-.7-.3-1.5-.3-2.2-.3-11.9-.2-23.6.9-35.2 3.9-5.3 1.4-10.4 3.1-15 6-2.2 1.4-4.3 2.9-5.8 5-1 1.5-1.3 3.2-1.1 4.9.2 1.4 1.4 2.1 2.5 2.6 1.7.8 3.5 1.4 5.4 1.9 7.7 2 15.4 4.2 22.8 6.9 2 .7 13 5.1 16.2 7.1 3.2 1.9 6.1 4.3 8.4 7.3 3.4 4.6 4 9.6 2.4 15-1.8 6.3-5.8 10.9-10.9 14.7-5.6 4.2-12 6.2-18.6 7.8-7.5 1.9-15.1 3-22.9 3.6-4.3.4-8.6.4-12.9.4-6.1 0-12.2-.7-18.1-2.3-3-.8-5.9-1.8-8.1-4.3-1.7-2-2.4-4.1-1.4-6.6 1.2-3.1 2.6-6.1 4.8-8.7 3.2-3.9 7.6-5.3 12.5-5.3.5 0 1.1 0 1.2.6.2.6-.4.9-.9 1.1-1.3.7-2.5 1.4-3.8 2.2-.3.2-.7.4-.7.8s.5.6.8.7c1.5.6 3.2.7 4.8.8 3.6.3 7.1.4 9.6.3zM311 770.1c-.9 3.9-1.7 7.9-2.5 11.8-1.5 7.3-3.2 14.5-5.2 21.7-2.5 8.9-5.1 17.7-8.8 26.2-.4 1-3.6 9.4-4.4 11.2-2.3 4.9-5 9.6-7.7 14.3-4.2 7.3-8.8 14.3-13.7 21.1-7 9.6-9 15.4-27.3 29.1-3.6 2-7.2 4.1-10.9 6.1-19.7 7.9-35.7 9.1-48.1 7.4-.5-.1-1-.2-1.6-.2-18.5-3-28.9-12.5-32.1-15.8-.1-.1-.1-.2-.2-.2-.1-.1-.2-.2-.3-.4-.1-.1-.1-.1-.1-.2-.2-.2-.3-.3-.3-.4l-.1-.1c-.8-.9-1.5-1.9-2.3-2.8-4-5.4-6.3-11.5-7.3-18.1-1.2-7.9-.8-15.6 2.2-23 3.9-9.7 10.9-16.6 19.9-21.7 1.8-1 18.8-5.6 25.6-5.9 7.5-.3 14.8.7 22.1 2.2 3.6.7 7.1 2.3 10.7 2.7 4.7.5 8.9 2.6 13.1 4.4 4.7 2 9.2 4.4 13.6 6.8 5.4 2.9 10.5 6.2 15.5 9.6 2.3 1.6 2.3 1.6 0 3.1-2 1.4-4.1 2.7-6.2 4.1-.5.3-.8.4-1.4 0-4.4-3.3-9.1-6.1-13.9-8.8-5.6-3.1-11.3-5.8-17.1-8.3-5.2-2.2-10.6-4.1-16-5.7-6.9-2.1-13.9-3.5-21.1-4.1-5.2-.4-10.4-.2-15.5 1-10.3 2.3-18.7 7.4-24.1 16.7-2.1 3.7-3.2 7.8-3.4 12.1-.6 11.7 3.7 21.6 11.1 30.3 6.5 7.7 15.1 11.8 24.4 14.7 5.3 1.6 10.9 2.3 16.4 2.7 9.2.7 18.3-.1 27.1-2.9 4.3-1.4 8.5-3.2 12.5-5.4 6.9-3.8 13-8.7 18.6-14.3 4.9-4.9 9.3-10.3 13.3-16 8-11.7 14.3-24.4 19.9-37.4 2.7-6.4 4.9-12.9 7-19.5 1-3.1 2.5-14.7 3-17.3 1.5-7.6 3-15.2 4.5-22.9.4-2.1.4-2.1-1.8-1.8-3.3.5-19.8.4-24 3.2-5.8 3.9-8.2 11.2-6.3 18.1 1.1 4.1 3.6 7.4 6.4 10.5 2.6 3 5.6 5.5 8.1 8.5 1.7 2.2 3.3 4.5 3.7 7.3.5 3.8-.3 7.4-2.4 10.6-1.6 2.4-3.2 4.7-5.3 6.8-2.1 2-4.5 3.5-7.4 3.7-3.5.3-6.1-1.4-8.1-4.3-1.3-1.9-1.4-4.2-1.8-6.4-.1-.5.2-.7.6-.4 1 .9 2.3 1.4 3.2 2.4 1.9 2.1 4.4 3.3 7.2 3.4 5.3.2 8.4-4 7.3-8.5-.7-3.1-2.6-5.4-4.7-7.6-2.8-2.9-5.7-5.6-8-8.9-4-5.7-5.6-12-4.7-18.9.4-3.1 1.1-6.1 2.4-8.9 2.8-5.7 6.2-11.1 12-13.9 5.7-2.8 15-4.5 20.6-4.3 4.5-.2 9 .4 13.4.2.8.3.9.6.7 1.3zM658.3 774.2c0 2.3-.4 4-1.2 5.7-2.7 6.1-7.1 11-12.2 15.2-.4.3-.8.5-1.2.8-.3.2-.7.5-1 .1-.3-.3-.2-.7-.1-1.1.4-1.4 1.4-2.4 2.1-3.6.2-.3.4-.6.6-.8 1.1-1.7 1.1-1.7-.8-2.2-1.9-.5-2.8-2-2.4-4.2.6-3.6 2.5-6.6 4.9-9.3.1-.1 4.7-3.3 7.2-4.1 2.2-.6 4.1 1.3 4.1 3.5zM311.3 841.1c2.6-.1 5.7.2 8.8-.2 2-.3 3.9-.8 5.7-1.4.3-.1.6-.4.9 0 .3.3-.1.6-.2.9-1.4 2.9-3.3 5.3-6.4 6.6-2.2.9-4.5 1.5-6.9 1.5-3.3 0-6.6.1-9.9 0-2.4-.1-4.1.9-5.2 3-.2.4-.4 1.2-1.1.8-.6-.4-.4-1.1-.1-1.6 1.2-2.5 2.5-4.8 3.5-7.4.7-1.7 1.7-2.2 3.4-2.1 2.3 0 4.7-.1 7.5-.1z"/>
            <path d="M75.1 909.8c-17.9-16.5-32.5-37.2-39.2-60.9-13-46.9 17.1-83.4 55.5-105.6 57.9-32.7 123.1-44.3 187.8-53.2 96-12.6 193.3-9.7 289.6-3.2C694 695.6 824.5 713 949.3 728c62.9 7.4 125.7 14.6 188.9 18 50.4 1.9 140.2 6.5 179.4-26.2 25.4-21.2 19.2-57.1 8.7-84.7 11.6 21.3 20.6 46.6 12.9 70.9-21.6 63.9-144.9 66.4-201.5 68-64.2.8-128.4-3.3-192.2-8.5-189.4-15.1-378.6-44-568.8-44.9-84.1 1-251 7.3-311.6 66.6-36.7 35.6-18.3 87.5 10 122.6z"/>
            <text transform="translate(795.367 896.552)" style="font-size:53.7603px;font-family:'FranklinGothic-Medium'">Construction LLC</text>
            <path class="st5" d="M893.3 663.9h31.3l179.6-204.4 189.9 204.4h28.4l-220-235.2z"/>
            <linearGradient id="SVGID_00000085209923949904264420000014108591492335450028_" gradientUnits="userSpaceOnUse" x1="1273.272" y1="676.682" x2="1062.944" y2="439.818">
                <stop offset="0" style="stop-color:#fff"/>
                <stop offset="1" style="stop-color:#000"/>
            </linearGradient>
            <path style="fill:url(#SVGID_00000085209923949904264420000014108591492335450028_)" d="M1295.1 665h-64.4v-37.3l-139.4-153.4 12.9-14.8z"/>
            <linearGradient id="SVGID_00000098195826342377223820000001673771715713900218_" gradientUnits="userSpaceOnUse" x1="1077.174" y1="722.765" x2="1077.174" y2="415.003">
                <stop offset=".215" style="stop-color:#fff"/>
                <stop offset=".309" style="stop-color:#fbfbfb"/>
                <stop offset=".407" style="stop-color:#eee"/>
                <stop offset=".507" style="stop-color:#dadada"/>
                <stop offset=".608" style="stop-color:#bcbcbc"/>
                <stop offset=".71" style="stop-color:#979797"/>
                <stop offset=".813" style="stop-color:#696969"/>
                <stop offset=".914" style="stop-color:#333"/>
                <stop offset="1" style="stop-color:#000"/>
            </linearGradient>
            <path style="fill:url(#SVGID_00000098195826342377223820000001673771715713900218_)" d="M1230.7 665h-307l167.6-190.7 139.4 153.4z"/>
            <linearGradient id="SVGID_00000111892353494954295600000017544909061023396230_" gradientUnits="userSpaceOnUse" x1="408.718" y1="484.463" x2="469.105" y2="420.6">
                <stop offset="0" style="stop-color:#fff"/>
                <stop offset=".067" style="stop-color:#d7d7d7"/>
                <stop offset=".162" style="stop-color:#a5a5a5"/>
                <stop offset=".262" style="stop-color:#797979"/>
                <stop offset=".365" style="stop-color:#535353"/>
                <stop offset=".471" style="stop-color:#353535"/>
                <stop offset=".583" style="stop-color:#1e1e1e"/>
                <stop offset=".702" style="stop-color:#0d0d0d"/>
                <stop offset=".833" style="stop-color:#030303"/>
                <stop offset="1" style="stop-color:#000"/>
            </linearGradient>
            <path style="fill:url(#SVGID_00000111892353494954295600000017544909061023396230_)" d="m475.3 434.6-31.8 31.8-35.6-1.7 49.8-49.7z"/>
            <linearGradient id="SVGID_00000041997958793261658270000015863495401613582773_" gradientUnits="userSpaceOnUse" x1="434.34" y1="419.133" x2="638.184" y2="651.544">
                <stop offset="0" style="stop-color:#000"/>
                <stop offset=".027" style="stop-color:#1d1d1d"/>
                <stop offset=".077" style="stop-color:#4c4c4c"/>
                <stop offset=".132" style="stop-color:#767676"/>
                <stop offset=".19" style="stop-color:#9b9b9b"/>
                <stop offset=".251" style="stop-color:#bababa"/>
                <stop offset=".318" style="stop-color:#d4d4d4"/>
                <stop offset=".393" style="stop-color:#e7e7e7"/>
                <stop offset=".479" style="stop-color:#f5f5f5"/>
                <stop offset=".587" style="stop-color:#fdfdfd"/>
                <stop offset=".785" style="stop-color:#fff"/>
            </linearGradient>
            <path style="fill:url(#SVGID_00000041997958793261658270000015863495401613582773_)" d="M682.2 665h-36.6L469.2 469.2l-25.7-2.8 31.8-31.8z"/>
            <path class="st5" d="M457.7 376.7 372 462.3l35.9 2.4 49.8-49.7 223.6 248.9h35.6M490.4 663.9h-21.2L302.5 483.6 135.7 663.9h-22.9l189.7-208.2z"/>
            <linearGradient id="SVGID_00000016777501297998531310000001694254075504264328_" gradientUnits="userSpaceOnUse" x1="331.644" y1="664.962" x2="331.644" y2="462.158">
                <stop offset=".215" style="stop-color:#fff"/>
                <stop offset=".299" style="stop-color:#fafafa"/>
                <stop offset=".396" style="stop-color:#ececec"/>
                <stop offset=".5" style="stop-color:#d5d5d5"/>
                <stop offset=".608" style="stop-color:#b4b4b4"/>
                <stop offset=".72" style="stop-color:#8a8a8a"/>
                <stop offset=".835" style="stop-color:#575757"/>
                <stop offset=".951" style="stop-color:#1c1c1c"/>
                <stop offset="1" style="stop-color:#000"/>
            </linearGradient>
            <path style="fill:url(#SVGID_00000016777501297998531310000001694254075504264328_)" d="M470.2 665H193.1v-38.2l121.6-129.9z"/>
            <linearGradient id="SVGID_00000085243105989321843880000006108272173770618008_" gradientUnits="userSpaceOnUse" x1="473.556" y1="461.72" x2="473.556" y2="640.26">
                <stop offset=".054" style="stop-color:#7ad0f7"/>
                <stop offset=".13" style="stop-color:#70c3eb"/>
                <stop offset=".543" style="stop-color:#4083ad"/>
                <stop offset=".845" style="stop-color:#225a87"/>
                <stop offset="1" style="stop-color:#164b78"/>
            </linearGradient>
            <linearGradient id="SVGID_00000010297592417897437920000011303826785425194937_" gradientUnits="userSpaceOnUse" x1="473.452" y1="454.34" x2="473.452" y2="665.011">
                <stop offset="0" style="stop-color:#2c93ba"/>
                <stop offset="1" style="stop-color:#0a2a46"/>
            </linearGradient>
            <path style="fill:url(#SVGID_00000085243105989321843880000006108272173770618008_);stroke:url(#SVGID_00000010297592417897437920000011303826785425194937_);stroke-width:2.2536;stroke-miterlimit:10" d="M644.6 663.9H490.4L302.5 455.7l166.7 13.5z"/>
            <linearGradient id="SVGID_00000134207603968750278740000002822267817792020125_" gradientUnits="userSpaceOnUse" x1="933.312" y1="378.584" x2="933.312" y2="651.857">
                <stop offset="0" style="stop-color:#7ad0f7"/>
                <stop offset=".008" style="stop-color:#79cff6"/>
                <stop offset=".345" style="stop-color:#4f96c0"/>
                <stop offset=".635" style="stop-color:#306d99"/>
                <stop offset=".862" style="stop-color:#1d5481"/>
                <stop offset="1" style="stop-color:#164b78"/>
            </linearGradient>
            <linearGradient id="SVGID_00000160158999017289567920000015309548997055630731_" gradientUnits="userSpaceOnUse" x1="933.984" y1="387.096" x2="933.984" y2="665.011">
                <stop offset="0" style="stop-color:#2c93ba"/>
                <stop offset="1" style="stop-color:#0a2a46"/>
            </linearGradient>
            <path style="fill:url(#SVGID_00000134207603968750278740000002822267817792020125_);stroke:url(#SVGID_00000160158999017289567920000015309548997055630731_);stroke-width:2.2536;stroke-miterlimit:10" d="M764.2 663.9h129.1l209.2-235.2L954 439.3v25.1l-20.7 33.7V388.2h-36.1v55l-94.5-1z"/>
            <path d="M320.9 634.5h22.6v22.6h-22.6zM320.9 606.9h22.6v21.5h-22.6zM320.9 600.8h22.6v-2.9h-.4c-1.9-11.2-10.9-19.9-22.2-21.4v24.3zM291.5 606.9h23.3v21.5h-23.3zM291.5 634.5h23.3v22.6h-23.3zM314.8 600.8v-24.4c-11.6 1.2-21 10.1-22.9 21.5h-.4v2.9h23.3zM1091.3 631.4h25.9v25.9h-25.9zM1091.3 599.7h25.9v24.7h-25.9zM1091.3 592.6h25.9v-3.3h-.4c-2.1-12.8-12.5-22.9-25.4-24.6v27.9zM1057.6 599.7h26.7v24.7h-26.7zM1057.6 631.4h26.7v25.9h-26.7zM1084.3 592.6v-28c-13.4 1.4-24.1 11.6-26.3 24.7h-.4v3.3h26.7zM709.7 338.6s2.9-54 66-54c0 0-49.6-25.5-72.3 30.8 0 0-37.1-35.7-83.4 14.9.1.1 53.6-28.3 89.7 8.3zM754 329.4s54.4.5 59.8 43.9c0 0 26.5-34.7 67-14.9 0 0-21.7-34.7-61.4-7-.1 0-10.9-35.9-65.4-22z"/>
            <linearGradient id="SVGID_00000121249420968794834490000003558135683128426428_" gradientUnits="userSpaceOnUse" x1="659.097" y1="378.584" x2="659.097" y2="627.463">
                <stop offset="0" style="stop-color:#7ad0f7"/>
                <stop offset=".149" style="stop-color:#5daad2"/>
                <stop offset=".31" style="stop-color:#4488b2"/>
                <stop offset=".475" style="stop-color:#306d98"/>
                <stop offset=".643" style="stop-color:#215a86"/>
                <stop offset=".816" style="stop-color:#194f7c"/>
                <stop offset="1" style="stop-color:#164b78"/>
            </linearGradient>
            <linearGradient id="SVGID_00000091007394267973394330000000195743366813052546_" gradientUnits="userSpaceOnUse" x1="658.888" y1="375.211" x2="658.888" y2="665.011">
                <stop offset="0" style="stop-color:#2c93ba"/>
                <stop offset="1" style="stop-color:#0a2a46"/>
            </linearGradient>
            <path style="fill:url(#SVGID_00000121249420968794834490000003558135683128426428_);stroke:url(#SVGID_00000091007394267973394330000000195743366813052546_);stroke-width:2.2536;stroke-miterlimit:10" d="m457.7 376.7 259.2 287.2h47.3l38.5-221.7h57.8l-19.2-23.1z"/>
            <linearGradient id="SVGID_00000074437298804287932350000016102361901665889152_" gradientUnits="userSpaceOnUse" x1="159.072" y1="670.255" x2="340.305" y2="471.628">
                <stop offset="0" style="stop-color:#fff"/>
                <stop offset=".103" style="stop-color:#ededed"/>
                <stop offset=".31" style="stop-color:#bebebe"/>
                <stop offset=".602" style="stop-color:#727272"/>
                <stop offset=".966" style="stop-color:#0a0a0a"/>
                <stop offset="1" style="stop-color:#000"/>
            </linearGradient>
            <path style="fill:url(#SVGID_00000074437298804287932350000016102361901665889152_)" d="M134.7 665h58.4v-38.2l121.6-129.9-12.2-13.3z"/>
        </g>
    </switch>
</svg>
